<svg height="332.63157894736844" id="svg" viewBox="0, 0, 400,332.63157894736844"
    width="400" xmlns="http://www.w3.org/2000/svg">
    <g id="svgg">
        <path
            d="M179.797 2.659 C 175.937 6.519,174.035 17.540,174.035 36.047 C 174.035 60.714,170.899 67.390,153.901 78.918 C 140.485 88.016,132.438 96.312,124.856 108.866 C 112.521 129.286,97.149 140.590,74.783 145.690 L 63.860 148.180 63.700 160.055 C 63.450 178.562,60.529 183.356,36.113 205.326 C -0.262 238.055,-10.256 279.451,13.238 300.079 C 17.990 304.251,18.090 304.540,16.107 308.341 C 10.158 319.747,18.150 332.641,31.158 332.626 C 37.633 332.619,44.330 328.125,46.401 322.398 C 48.078 317.760,48.326 317.627,53.194 318.765 C 79.184 324.843,88.807 323.584,87.571 314.267 C 86.696 307.671,86.885 307.124,91.546 302.727 C 99.221 295.488,99.833 293.526,96.604 286.484 C 92.610 277.772,93.829 274.273,103.610 266.363 C 106.259 264.221,106.576 262.579,106.471 251.525 C 106.210 223.793,131.397 203.978,148.157 218.730 C 174.346 241.783,215.473 233.584,230.311 202.354 C 233.492 195.658,237.273 188.525,238.713 186.503 C 241.285 182.891,241.280 182.779,238.417 180.188 C 228.445 171.164,229.828 155.384,241.260 147.747 L 246.029 144.561 316.042 144.561 C 374.336 144.561,386.878 144.217,390.973 142.507 C 401.426 138.139,402.380 122.420,392.555 116.429 C 388.299 113.834,385.078 113.694,329.430 113.689 C 276.959 113.685,270.698 113.448,269.927 111.437 C 268.293 107.179,273.144 106.747,321.826 106.821 C 378.988 106.908,380.353 106.561,380.771 91.826 C 381.229 75.660,381.941 75.789,292.654 75.789 L 215.917 75.789 217.081 80.351 C 222.103 100.028,215.958 128.563,204.018 141.008 C 198.874 146.368,197.823 143.131,202.029 134.886 C 209.124 120.980,210.818 103.600,207.017 83.736 C 205.860 77.686,204.912 69.373,204.912 65.263 C 204.912 61.153,205.860 52.840,207.017 46.790 C 210.561 28.269,208.646 16.691,200.428 6.953 C 194.459 -0.118,184.622 -2.166,179.797 2.659 M246.449 152.263 C 237.300 157.160,235.499 168.347,242.699 175.547 L 246.802 179.649 274.914 179.649 C 305.390 179.649,309.013 178.951,312.386 172.428 C 315.574 166.263,314.875 160.591,310.293 155.461 L 306.200 150.877 278.363 150.478 C 255.315 150.148,249.825 150.455,246.449 152.263 M167.669 182.934 C 165.026 197.023,177.075 210.526,192.289 210.526 C 199.783 210.526,200.142 208.867,193.761 203.739 C 186.260 197.711,184.201 191.174,187.608 184.202 L 190.175 178.947 203.860 178.546 L 217.544 178.144 217.536 184.160 C 217.498 213.179,182.854 227.658,160.087 208.170 C 144.469 194.802,147.456 183.735,168.134 178.353 C 168.362 178.294,168.152 180.356,167.669 182.934 M245.506 190.769 C 237.297 198.979,241.423 211.893,252.946 214.055 C 255.608 214.554,266.469 214.754,277.081 214.499 L 296.378 214.035 300.470 209.452 C 305.031 204.343,305.602 199.767,302.442 193.656 C 299.132 187.256,296.589 186.667,272.265 186.667 L 249.609 186.667 245.506 190.769 M38.285 314.011 C 43.143 315.419,36.772 325.614,31.034 325.614 C 26.449 325.614,22.456 321.461,22.456 316.692 C 22.456 309.933,24.641 308.458,30.738 311.099 C 33.516 312.303,36.912 313.613,38.285 314.011 "
            fill="#000000" fill-rule="evenodd" id="path0" stroke="none"></path>
    </g>
</svg>
